<svg xmlns="http://www.w3.org/2000/svg" width="120" height="63.07" viewBox="0 0 120 63.07">
  <g id="グループ化_1" data-name="グループ化 1" transform="translate(-487.302 -21.969)">
    <path id="パス_1" data-name="パス 1" d="M497.15,49.051a1.569,1.569,0,0,1-1.569-1.571V25.418H487.3V48.955a7.659,7.659,0,0,0,7.66,7.661h11.3V49.051Z" transform="translate(0 1.418)" fill="#ea5e00"/>
    <path id="パス_2" data-name="パス 2" d="M568.757,49.051a1.568,1.568,0,0,1-1.571-1.571V25.418H558.91V48.955a7.658,7.658,0,0,0,7.658,7.661h11.295V49.051Z" transform="translate(29.439 1.418)" fill="#ea5e00"/>
    <rect id="長方形_11" data-name="長方形 11" width="8.406" height="31.196" transform="translate(514.356 26.836)" fill="#ea5e00"/>
    <rect id="長方形_12" data-name="長方形 12" width="8.401" height="31.196" transform="translate(570.294 26.836)" fill="#ea5e00"/>
    <path id="パス_3" data-name="パス 3" d="M540.042,41.248l10.465-14.406-6.694-4.873-9.751,13.424-9.748-13.424-6.7,4.873,10.47,14.406a2.2,2.2,0,0,1,0,2.378l-10.47,14.408,6.7,4.867,9.748-13.42,9.751,13.42,6.694-4.867L540.042,43.625a2.144,2.144,0,0,1,0-2.378" transform="translate(12.463 0)" fill="#ea5e00"/>
    <path id="パス_4" data-name="パス 4" d="M488.647,57.04H487.3V67.807h6.361V66.63h-5.016Z" transform="translate(0 14.418)" fill="#4c4948"/>
    <rect id="長方形_13" data-name="長方形 13" width="1.24" height="1.446" transform="translate(495.251 71.311)" fill="#4c4948"/>
    <rect id="長方形_14" data-name="長方形 14" width="1.24" height="7.801" transform="translate(495.251 74.422)" fill="#4c4948"/>
    <path id="パス_5" data-name="パス 5" d="M498.838,59.035a3.112,3.112,0,0,0-2.2,1.064v-.914H495.4v7.8h1.237V61.229a3.407,3.407,0,0,1,2.1-1.1c.8,0,1.15.391,1.15,1.259v5.6h1.24V61.358a2.118,2.118,0,0,0-2.289-2.323" transform="translate(3.33 15.238)" fill="#4c4948"/>
    <path id="パス_6" data-name="パス 6" d="M506.685,60h-1.5L502.2,63.728V57.04h-1.229V67.807H502.2V65.459l1.309-1.488,1.987,3.836h1.444l-2.574-4.892Z" transform="translate(5.618 14.418)" fill="#4c4948"/>
    <path id="パス_7" data-name="パス 7" d="M511.475,66.729c-.683,0-.778-.217-.778-.439V60.966h1.761V59.873H510.7v-2.51h-1.235v2.51H508.22v1.092h1.243v5.5c0,1.125.656,1.349,1.717,1.349a5.474,5.474,0,0,0,1.26-.114l.062-.02V66.638l-.1.024a7.273,7.273,0,0,1-.926.066" transform="translate(8.6 14.551)" fill="#4c4948"/>
    <path id="パス_8" data-name="パス 8" d="M515.173,59.035c-1.954,0-3.216,1.59-3.216,4.041,0,2.468,1.262,4.051,3.216,4.051s3.21-1.583,3.21-4.051c0-2.451-1.262-4.041-3.21-4.041m0,7.006c-1.24,0-1.978-1.1-1.978-2.965s.738-2.952,1.978-2.952,1.976,1.1,1.976,2.952-.735,2.965-1.976,2.965" transform="translate(10.136 15.238)" fill="#4c4948"/>
    <path id="パス_9" data-name="パス 9" d="M524.277,58.113c1.279,0,2.062.694,2.554,2.268l.025.075,1.287-.251-.027-.092c-.61-2.138-1.88-3.176-3.9-3.176-1.271,0-4.225.539-4.225,5.527s2.953,5.527,4.225,5.527a3.571,3.571,0,0,0,2.712-.984v.841h1.146V62.58h-3.742v1.177h2.389v.8a2.179,2.179,0,0,1-2.447,2.252c-1.092,0-2.929-.562-2.929-4.35s1.837-4.35,2.929-4.35" transform="translate(13.44 14.376)" fill="#4c4948"/>
    <path id="パス_10" data-name="パス 10" d="M530.105,59.035c-1.945,0-3.213,1.59-3.213,4.041,0,2.468,1.269,4.051,3.213,4.051s3.212-1.583,3.212-4.051c0-2.451-1.26-4.041-3.212-4.041m0,7.006c-1.239,0-1.973-1.1-1.973-2.965s.734-2.952,1.973-2.952,1.977,1.1,1.977,2.952-.739,2.965-1.977,2.965" transform="translate(16.276 15.238)" fill="#4c4948"/>
    <path id="パス_11" data-name="パス 11" d="M535.48,59.035c-1.952,0-3.215,1.59-3.215,4.041,0,2.468,1.263,4.051,3.215,4.051s3.21-1.583,3.21-4.051c0-2.451-1.263-4.041-3.21-4.041m0,7.006c-1.235,0-1.977-1.1-1.977-2.965s.742-2.952,1.977-2.952,1.978,1.1,1.978,2.952-.737,2.965-1.978,2.965" transform="translate(18.485 15.238)" fill="#4c4948"/>
    <path id="パス_12" data-name="パス 12" d="M544.1,66.38V57.04h-1.232v3.615a3.325,3.325,0,0,0-1.98-.8c-1.171,0-3.155.854-3.155,4.041,0,2.993,1.731,4.05,3.21,4.05a2.684,2.684,0,0,0,1.957-.778l.127.636h1.146l-.016-.1a7.6,7.6,0,0,1-.058-1.325m-1.232-4.435v3.944a2.511,2.511,0,0,1-1.83.971c-1.321,0-2.067-1.048-2.067-2.9,0-2.007.7-3.018,2.067-3.018a2.765,2.765,0,0,1,1.83,1" transform="translate(20.733 14.418)" fill="#4c4948"/>
    <path id="パス_13" data-name="パス 13" d="M548.248,57.04h-1.356V67.807h6.375V66.63h-5.019Z" transform="translate(24.499 14.418)" fill="#4c4948"/>
    <rect id="長方形_15" data-name="長方形 15" width="1.232" height="1.446" transform="translate(579.389 71.311)" fill="#4c4948"/>
    <rect id="長方形_16" data-name="長方形 16" width="1.232" height="7.801" transform="translate(579.389 74.422)" fill="#4c4948"/>
    <path id="パス_14" data-name="パス 14" d="M557.635,65.281l-1.891-6.141H554.49l2.4,7.8h1.541l2.345-7.8h-1.259Z" transform="translate(27.622 15.282)" fill="#4c4948"/>
    <rect id="長方形_17" data-name="長方形 17" width="1.237" height="1.446" transform="translate(589.779 71.311)" fill="#4c4948"/>
    <rect id="長方形_18" data-name="長方形 18" width="1.237" height="7.801" transform="translate(589.779 74.422)" fill="#4c4948"/>
    <path id="パス_15" data-name="パス 15" d="M565.828,59.035a3.119,3.119,0,0,0-2.2,1.064v-.914H562.4v7.8h1.232V61.229a3.4,3.4,0,0,1,2.1-1.1c.8,0,1.156.391,1.156,1.259v5.6h1.238V61.358a2.119,2.119,0,0,0-2.29-2.323" transform="translate(30.872 15.238)" fill="#4c4948"/>
    <path id="パス_16" data-name="パス 16" d="M569.511,65.477c-.342,0-.543-.179-.543-.471a.619.619,0,0,1,.512-.612,4.082,4.082,0,0,0,1.346.2,2.784,2.784,0,0,0,2.88-2.753,2.656,2.656,0,0,0-.477-1.513,3.085,3.085,0,0,1,1.027-.157h.094V58.925l-.1.011a3.711,3.711,0,0,0-1.637.655,3.162,3.162,0,0,0-1.891-.511,2.771,2.771,0,0,0-2.97,2.759,2.64,2.64,0,0,0,.972,2.119c-.547.341-.964.639-.964,1.312a1.263,1.263,0,0,0,.818,1.1c-.751.416-1.156.806-1.156,1.544,0,1.284,1.133,1.935,3.371,1.935,2.632,0,3.563-1.1,3.563-2.145,0-1.626-1.311-2.224-4.85-2.224m1.166-5.307a1.618,1.618,0,0,1,1.854,1.727A1.583,1.583,0,0,1,570.8,63.51a1.7,1.7,0,0,1-1.868-1.671,1.587,1.587,0,0,1,1.747-1.669m.3,8.588c-2.189,0-2.368-.429-2.368-.864,0-.57.526-1.183,2.029-1.183,2.268,0,2.541.59,2.551,1.033-.01.748-1.149,1.013-2.213,1.013" transform="translate(32.941 15.193)" fill="#4c4948"/>
  </g>
</svg>
