<svg xmlns="http://www.w3.org/2000/svg" width="18" height="19.236" viewBox="0 0 18 19.236"><defs><style>.a{fill:#fff;}</style></defs><g transform="translate(-0.036 -27.239)"><path class="a" d="M2.513.143C-.358,1.061-.537,6.481.813,9.59L5.4,9.248A26.877,26.877,0,0,0,6,3.874C5.984,2.424,5.158-.7,2.513.143Z" transform="matrix(0.985, -0.174, 0.174, 0.985, 0.036, 31.992)"/><path class="a" d="M0,.482s-.154,4.4,2.913,4.061C5.631,4.241,4.581,0,4.581,0Z" transform="matrix(0.985, -0.174, 0.174, 0.985, 2.791, 41.985)"/><path class="a" d="M3.483.143C.838-.7.012,2.424,0,3.874A26.874,26.874,0,0,0,.6,9.248l4.585.343C6.533,6.481,6.354,1.061,3.483.143Z" transform="translate(12.085 27.24) rotate(7)"/><path class="a" d="M.2,0S-.851,4.241,1.867,4.543C4.934,4.883,4.78.482,4.78.482Z" transform="translate(11.063 37.511) rotate(7)"/></g></svg>