<svg xmlns="http://www.w3.org/2000/svg" width="16.41" height="15.451" viewBox="0 0 16.41 15.451"><defs><style>.a{fill:#ada29a;}</style></defs><g transform="translate(-2.232 -33.452)"><path class="a" d="M2.533,33.872C-.362,34.8-.542,40.263.819,43.4l4.623-.346a27.1,27.1,0,0,0,.6-5.418C6.033,36.172,5.2,33.02,2.533,33.872Z" transform="matrix(0.995, -0.105, 0.105, 0.995, -1.293, 0.541)"/><path class="a" d="M29.22,342.493s-.155,4.438,2.937,4.095c2.74-.3,1.681-4.58,1.681-4.58Z" transform="matrix(0.995, -0.105, 0.105, 0.995, -60.508, -292.751)"/><path class="a" d="M336.392,33.872c-2.667-.853-3.5,2.3-3.511,3.762a27.094,27.094,0,0,0,.6,5.418l4.623.346C339.467,40.263,339.287,34.8,336.392,33.872Z" transform="matrix(0.996, 0.087, -0.087, 0.996, -316.055, -29.119)"/><path class="a" d="M340.162,342.008s-1.059,4.276,1.681,4.58c3.092.343,2.937-4.095,2.937-4.095Z" transform="matrix(0.996, 0.087, -0.087, 0.996, -296.909, -326.457)"/></g></svg>