<svg xmlns="http://www.w3.org/2000/svg" width="100" height="34.109" viewBox="0 0 100 34.109">
  <g id="グループ化_1" data-name="グループ化 1" transform="translate(-487.302 -21.969)">
    <path id="パス_1" data-name="パス 1" d="M495.509,45.112A1.307,1.307,0,0,1,494.2,43.8V25.418h-6.9V45.033a6.383,6.383,0,0,0,6.383,6.384H503.1v-6.3Z" transform="translate(0 0.607)" fill="#fff"/>
    <path id="パス_2" data-name="パス 2" d="M567.116,45.112a1.307,1.307,0,0,1-1.309-1.309V25.418h-6.9V45.033a6.382,6.382,0,0,0,6.382,6.384H574.7v-6.3Z" transform="translate(12.598 0.607)" fill="#fff"/>
    <rect id="長方形_11" data-name="長方形 11" width="7.005" height="25.997" transform="translate(509.847 26.025)" fill="#fff"/>
    <rect id="長方形_12" data-name="長方形 12" width="7" height="25.997" transform="translate(556.462 26.025)" fill="#fff"/>
    <path id="パス_3" data-name="パス 3" d="M536.3,38.035l8.721-12.005-5.578-4.06-8.126,11.187L523.2,21.969l-5.581,4.06,8.725,12.005a1.832,1.832,0,0,1,0,1.981l-8.725,12.006,5.581,4.056,8.123-11.183,8.126,11.183,5.578-4.056L536.3,40.016a1.787,1.787,0,0,1,0-1.981" transform="translate(5.333 0)" fill="#fff"/>
  </g>
</svg>
