<?xml version="1.0" standalone="no"?>
<!DOCTYPE svg PUBLIC "-//W3C//DTD SVG 20010904//EN"
 "http://www.w3.org/TR/2001/REC-SVG-20010904/DTD/svg10.dtd">
<svg version="1.0" xmlns="http://www.w3.org/2000/svg"
 width="400.000000pt" height="400.000000pt" viewBox="0 0 400.000000 400.000000"
 preserveAspectRatio="xMidYMid meet">
<metadata>
Created by potrace 1.11, written by Peter Selinger 2001-2013
</metadata>
<g transform="translate(0.000000,400.000000) scale(0.100000,-0.100000)"
fill="#000000" stroke="none">
<path d="M1575 2609 c-44 -33 -92 -69 -108 -82 l-27 -22 65 -90 c35 -50 68
-94 72 -100 69 -86 213 -298 213 -315 0 -18 -128 -208 -227 -335 -13 -16 -27
-34 -31 -40 -17 -23 -79 -111 -85 -122 -8 -12 196 -167 212 -161 9 3 260 343
291 393 8 14 19 23 25 22 5 -2 76 -95 158 -208 82 -112 153 -205 158 -207 16
-6 220 149 212 161 -4 7 -83 116 -175 243 -98 136 -168 241 -168 254 0 13 70
118 168 254 92 127 171 236 175 242 7 12 -188 163 -208 162 -11 -1 -26 -21
-213 -277 -54 -74 -102 -136 -107 -137 -6 -2 -72 84 -148 189 -76 106 -145
202 -155 213 l-17 22 -80 -59z"/>
<path d="M50 2098 l0 -414 26 -52 c14 -29 42 -66 62 -82 60 -50 113 -59 333
-59 l195 0 2 124 1 125 -158 0 c-140 0 -160 2 -174 18 -15 17 -17 58 -17 384
l0 365 -135 2 -135 2 0 -413z"/>
<path d="M929 2487 c-1 -30 -1 -901 0 -953 l1 -41 138 -2 137 -1 -2 487 c-1
269 -2 498 -2 511 -1 22 -2 22 -136 21 -131 -1 -135 -1 -136 -22z"/>
<path d="M2747 2501 c-2 -3 -3 -231 -3 -506 l1 -500 138 -2 c134 -2 137 -1
138 20 1 28 1 979 0 990 -1 9 -270 8 -274 -2z"/>
<path d="M3334 2496 c-2 -6 -3 -193 -1 -416 2 -399 2 -406 24 -447 30 -55 67
-90 126 -118 45 -21 60 -23 257 -23 l210 -1 0 125 0 124 -159 0 c-134 0 -161
2 -172 16 -11 13 -14 90 -14 383 l0 366 -133 1 c-92 1 -135 -2 -138 -10z"/>
</g>
</svg>
